<svg version="1.1" id="Layer_1" xmlns="http://www.w3.org/2000/svg" xmlns:xlink="http://www.w3.org/1999/xlink" x="0px" y="0px"
	 width="100%" viewBox="0 0 1280 292" enable-background="new 0 0 1280 292" xml:space="preserve">
<path fill="#000002" opacity="1.000000" stroke="none" 
	d="
M1.000000,67.000000 
	C1.000000,45.002975 1.000000,23.005951 1.000000,1.006695 
	C427.605988,1.004463 854.211975,1.004463 1280.908936,1.004463 
	C1280.908936,98.259415 1280.908936,195.518951 1280.908936,292.889221 
	C854.333374,292.889221 427.666687,292.889221 1.000005,292.891968 
	C1.000000,233.236282 1.000000,173.577850 1.388994,113.262589 
	C2.348403,113.891586 3.212344,115.126541 3.445242,116.470833 
	C6.993962,136.953903 12.845438,156.654236 23.000223,174.923386 
	C36.474453,199.164459 55.581295,217.253174 81.308853,227.982529 
	C83.437782,228.870377 86.422234,229.321869 88.462875,228.543640 
	C101.464546,223.585159 113.390465,216.656250 123.790901,207.342758 
	C140.653503,192.242462 152.338333,173.687531 159.980209,152.472595 
	C169.356110,126.443733 172.901428,99.570732 171.856476,72.003273 
	C171.712646,68.208809 170.098251,66.925087 166.249603,66.934349 
	C160.608276,66.947929 154.925400,66.513474 149.329865,65.755722 
	C127.967903,62.862919 108.673332,54.575329 91.000618,42.466599 
	C87.485794,40.058361 84.940773,40.287186 81.621315,42.585835 
	C57.387817,59.367004 30.591967,67.838799 1.000000,67.000000 
M384.045074,193.947037 
	C382.069885,196.658676 380.094696,199.370331 378.045593,202.066284 
	C378.045593,202.066284 378.092529,202.125458 377.498932,202.417191 
	C374.446442,206.319443 371.608002,210.416824 368.279938,214.067871 
	C365.091187,217.566101 365.388428,220.413681 368.819702,223.679337 
	C368.819702,223.679337 369.000458,223.981155 369.014374,224.539230 
	C369.291595,224.761856 369.568848,224.984482 369.863159,225.127686 
	C369.863159,225.127686 369.796082,225.173538 369.897919,225.898285 
	C370.879425,229.978729 374.153809,229.454575 377.122742,229.455383 
	C419.946472,229.466888 462.772491,229.239380 505.591766,229.677292 
	C513.252319,229.755630 518.080322,227.856323 521.364197,220.923325 
	C523.412903,216.598145 526.503540,212.766449 529.846558,207.600784 
	C526.105774,207.600784 523.977234,207.600845 521.848694,207.600754 
	C482.524139,207.599045 443.199585,207.609100 403.875031,207.582672 
	C398.136139,207.578812 397.786072,206.953110 400.442017,202.070801 
	C405.681183,192.439865 410.940918,182.820084 416.059357,173.084076 
	C416.059357,173.084076 416.206604,173.175003 416.783386,172.855698 
	C422.189148,163.240387 427.594910,153.625076 433.008148,144.002350 
	C433.008148,144.002350 433.004822,143.992661 433.446442,143.501526 
	C440.322906,131.416351 447.199371,119.331169 454.519318,106.869934 
	C455.672607,104.620796 456.825897,102.371658 457.979187,100.122528 
	C457.470459,99.758545 456.961731,99.394562 456.453003,99.030579 
	C454.500916,101.610268 452.548828,104.189957 450.057709,107.109978 
	C448.784424,109.103233 447.511139,111.096481 445.931061,113.322968 
	C445.931061,113.322968 445.766724,113.671600 445.183960,113.914124 
	C444.520203,114.957336 443.856415,116.000557 442.904602,117.288490 
	C442.904602,117.288490 442.754547,117.635376 442.146606,117.920456 
	C431.475067,131.763321 420.758392,145.571777 410.158661,159.469406 
	C406.856628,163.798813 403.870880,168.369461 400.816986,172.838486 
	C400.816986,172.838486 400.775787,172.773254 400.152802,172.989807 
	C398.983063,174.576675 397.813324,176.163528 396.745209,177.766083 
	C396.745209,177.766083 396.669434,177.696625 396.091797,178.005371 
	C392.283295,183.242584 388.474792,188.479797 384.983551,193.990234 
	C384.983551,193.990234 384.660706,193.723221 384.045074,193.947037 
M448.718567,148.936203 
	C445.167572,155.311447 441.616608,161.686691 438.065613,168.061935 
	C438.590454,168.412338 439.115295,168.762741 439.640137,169.113159 
	C449.908295,155.553360 460.176453,141.993576 470.959137,128.026077 
	C489.601807,103.739944 508.247803,79.456390 526.881714,55.163551 
	C528.649353,52.859077 531.257568,50.796387 528.881958,47.337559 
	C526.220520,43.462528 525.453186,38.560249 518.448303,38.629681 
	C477.817535,39.032417 437.171783,39.296894 396.551727,38.524422 
	C385.265411,38.309792 377.466248,40.858864 372.553345,51.165756 
	C371.130341,54.151138 368.871826,56.738277 366.996338,59.507984 
	C367.306915,59.993801 367.617462,60.479622 367.928040,60.965439 
	C410.905304,60.965439 453.882538,60.965439 497.833649,60.965439 
	C496.880493,63.334064 496.488953,64.709312 495.810181,65.924088 
	C492.888062,71.153931 489.856049,76.322227 486.910309,81.539070 
	C474.312866,103.849083 461.731873,126.168373 448.718567,148.936203 
M335.807526,107.500061 
	C335.813110,86.680214 335.739105,65.859772 335.895813,45.041065 
	C335.924866,41.182167 334.834076,39.493671 330.812958,39.849361 
	C327.837769,40.112534 324.821350,39.915470 321.823303,39.913666 
	C314.060089,39.908985 314.061340,39.906826 314.066803,47.926857 
	C314.079529,66.581390 314.102173,85.235924 314.083405,103.890427 
	C314.081726,105.541451 313.806061,107.192200 313.620544,109.255692 
	C312.308594,108.587555 311.760254,108.470497 311.461273,108.132706 
	C298.170654,93.116905 280.692780,90.247749 262.207794,92.345192 
	C237.007492,95.204597 224.879807,113.903778 223.202972,138.620621 
	C222.190704,153.541504 222.692032,168.595016 223.105850,183.572556 
	C223.399734,194.209412 226.649948,204.181229 232.838898,212.993591 
	C240.683044,224.162766 252.055664,229.426773 265.135284,230.504181 
	C281.577881,231.858612 297.489075,230.241196 309.755280,217.092239 
	C310.705444,216.073700 311.880432,215.264908 314.156433,213.338028 
	C314.156433,217.980759 314.243164,221.222336 314.130951,224.457001 
	C314.027802,227.430786 315.264740,228.690613 318.274750,228.575043 
	C322.099548,228.428207 325.965149,228.214645 329.756073,228.596451 
	C334.668335,229.091202 335.937195,227.215683 335.914154,222.426071 
	C335.731567,184.451447 335.809570,146.475571 335.807526,107.500061 
M1224.527222,226.060211 
	C1229.418823,222.525696 1234.310303,218.991196 1239.381470,215.326904 
	C1239.561279,215.776154 1239.920166,216.337311 1240.004028,216.936890 
	C1240.558105,220.903427 1239.677979,226.605301 1241.928345,228.397095 
	C1244.525879,230.465424 1249.867065,229.088776 1254.016846,229.205505 
	C1254.349854,229.214874 1254.683472,229.204544 1255.016724,229.203232 
	C1261.818237,229.176483 1261.839111,229.176468 1261.839844,222.337433 
	C1261.845459,166.842804 1261.842407,111.348175 1261.842896,55.853546 
	C1261.842896,52.187271 1261.700806,48.513012 1261.896484,44.856991 
	C1262.087402,41.289745 1260.927002,39.603165 1257.079468,39.885315 
	C1253.432617,40.152737 1249.720947,40.244080 1246.092163,39.876663 
	C1241.041870,39.365318 1239.954956,41.612869 1240.006104,46.223129 
	C1240.219238,65.385582 1240.115601,84.551659 1240.101318,103.716385 
	C1240.100098,105.440559 1239.905640,107.164581 1239.729980,110.056274 
	C1237.704712,108.369011 1236.526489,107.561592 1235.558228,106.552612 
	C1228.616455,99.319565 1220.049561,95.252388 1210.311401,93.384979 
	C1176.726807,86.944664 1153.410034,102.321480 1149.679077,135.379898 
	C1147.729736,152.652039 1148.230469,170.399673 1149.556030,187.785294 
	C1150.824463,204.422470 1158.195923,218.861618 1174.319946,226.250519 
	C1190.577637,233.700714 1207.318481,232.876953 1224.527222,226.060211 
M819.958008,207.499817 
	C819.958008,214.477448 819.958008,221.455063 819.958008,229.237915 
	C825.968201,229.237915 831.589722,229.068771 837.194824,229.299316 
	C840.737122,229.445023 841.790894,228.117920 841.776123,224.664993 
	C841.654785,196.335281 842.120483,167.995178 841.490417,139.678635 
	C841.141174,123.984985 835.748901,109.704735 822.224548,100.331841 
	C802.686462,86.791245 771.875916,89.803299 754.706543,106.312645 
	C753.466614,107.504967 752.112488,108.578583 750.054138,110.364426 
	C749.841431,107.850540 749.616882,106.423302 749.615540,104.995850 
	C749.599121,87.831490 749.612793,70.667107 749.626587,53.502731 
	C749.628845,50.669933 749.510498,47.824791 749.730225,45.007374 
	C750.035767,41.089890 748.465088,39.569523 744.529907,39.887333 
	C741.218628,40.154758 737.868530,39.928631 734.535706,39.946568 
	C728.008545,39.981689 727.983032,39.989059 727.981567,46.553196 
	C727.969055,102.213692 727.951660,157.874207 727.986755,213.534668 
	C727.989868,218.494186 726.470154,225.571777 729.042236,227.858124 
	C732.024536,230.509216 738.763245,228.789261 743.842712,229.269608 
	C748.403503,229.700912 749.787231,228.117493 749.745911,223.407639 
	C749.507568,196.246063 749.559265,169.081146 749.648621,141.917816 
	C749.695740,127.584419 757.689026,116.876312 771.046753,113.739830 
	C776.333191,112.498550 781.955261,111.864906 787.367615,112.127274 
	C808.287109,113.141418 819.873230,125.548576 819.938416,146.506638 
	C820.000610,166.504227 819.955750,186.502151 819.958008,207.499817 
M1032.679688,106.816895 
	C1029.552612,104.358192 1026.659790,101.498047 1023.256775,99.512321 
	C1010.480591,92.057198 996.639099,91.117950 982.206665,92.783546 
	C959.978455,95.348831 942.481873,109.735970 936.807312,131.251648 
	C931.877869,149.942337 932.265686,168.973785 935.496826,187.751221 
	C938.649170,206.071289 949.425964,219.197311 966.927734,226.148346 
	C979.741577,231.237488 993.173889,232.025070 1006.737854,230.528076 
	C1017.809143,229.306183 1028.355835,226.385345 1037.139526,219.045898 
	C1044.804321,212.641495 1044.756226,212.594727 1038.228027,204.923416 
	C1036.933716,203.402267 1035.601318,201.899338 1034.455322,200.269333 
	C1032.724243,197.807343 1030.824829,197.645752 1028.639160,199.559464 
	C1018.097778,208.789688 1005.539551,211.386765 991.949585,211.066345 
	C971.280029,210.579010 955.799622,196.959290 954.377014,177.717438 
	C953.881409,171.013336 954.176575,170.686340 960.980591,170.683197 
	C988.644958,170.670425 1016.309875,170.570282 1043.973022,170.752090 
	C1048.619995,170.782639 1050.236938,169.368332 1049.873535,164.744415 
	C1049.339722,157.950500 1049.704590,151.067947 1048.898804,144.317215 
	C1047.253418,130.535172 1043.177490,117.631187 1032.679688,106.816895 
M676.866638,178.775818 
	C683.206177,188.287827 680.458435,200.567169 670.220764,206.234177 
	C659.075195,212.403793 646.812439,213.634781 634.366028,212.396744 
	C620.722046,211.039597 608.273010,205.995880 596.521545,199.045135 
	C595.186279,198.255371 592.405029,197.632523 591.767944,198.312683 
	C587.851318,202.494049 584.358582,207.072357 580.918518,211.281509 
	C581.506714,212.293457 581.613953,212.643570 581.848145,212.848801 
	C582.471680,213.395325 583.127197,213.912384 583.809753,214.383575 
	C609.395630,232.047562 637.632141,234.462646 667.022095,227.995819 
	C685.259949,223.982834 698.293884,213.643814 700.411804,193.770020 
	C702.382202,175.281631 695.643066,159.898697 676.344116,154.906570 
	C666.770691,152.430191 656.640991,152.111084 646.766663,150.788742 
	C637.247131,149.513931 627.610229,148.765732 618.253906,146.732346 
	C610.730286,145.097290 608.026123,140.485352 607.959229,132.855850 
	C607.876770,123.448418 613.996826,115.899239 623.862976,113.120537 
	C640.257202,108.503273 656.168457,110.470192 671.744263,116.648460 
	C675.900635,118.297127 680.404297,122.343620 683.882080,121.539902 
	C687.613037,120.677666 690.326111,115.400162 693.477417,112.043907 
	C696.992126,108.300644 696.758972,107.203987 692.261902,104.674339 
	C675.245239,95.102333 656.885864,91.091866 637.525330,92.114517 
	C624.997375,92.776253 612.575073,94.677643 602.112000,102.515717 
	C588.197998,112.938911 584.864807,127.288040 588.311218,143.423798 
	C591.272217,157.287048 601.587097,163.743118 614.636719,165.872681 
	C626.094055,167.742371 637.718872,168.578308 649.264038,169.919571 
	C658.800232,171.027466 668.721313,170.920731 676.866638,178.775818 
M1079.491455,116.499733 
	C1079.501099,143.153915 1079.400269,169.808777 1079.564209,196.462006 
	C1079.653564,210.973587 1087.016724,222.032455 1099.051880,226.809387 
	C1108.882446,230.711227 1119.130249,228.860275 1129.219482,228.968842 
	C1130.089478,228.978195 1131.652100,226.856537 1131.743774,225.638214 
	C1132.055664,221.497864 1131.734131,217.314453 1131.883545,213.155701 
	C1131.997314,209.988586 1130.484253,209.164124 1127.621338,209.241043 
	C1123.128052,209.361755 1118.614624,209.428345 1114.133545,209.143753 
	C1108.109497,208.761154 1103.770386,205.165390 1102.356567,199.335617 
	C1101.619385,196.295883 1101.250854,193.091476 1101.246338,189.960663 
	C1101.177979,142.649567 1101.197998,95.338348 1101.195679,48.027157 
	C1101.195679,46.527927 1101.633057,44.813938 1101.051880,43.585773 
	C1100.379517,42.165165 1098.900635,40.299110 1097.602173,40.155048 
	C1093.486328,39.698383 1089.270630,40.206371 1085.132690,39.865746 
	C1080.701538,39.500965 1079.441162,41.151073 1079.473267,45.533951 
	C1079.644165,68.854668 1079.516113,92.177567 1079.491455,116.499733 
M901.097351,227.213181 
	C901.126038,201.063309 901.161133,174.913452 901.180969,148.763580 
	C901.193420,132.273529 901.091187,115.782547 901.252136,99.294044 
	C901.288757,95.542641 899.983765,94.224823 896.329163,94.430351 
	C892.343689,94.654495 888.302856,94.829506 884.347839,94.423927 
	C879.297913,93.906082 877.844849,95.632889 877.870605,100.758553 
	C878.075867,141.566284 877.981567,182.375504 877.983948,223.184280 
	C877.984009,224.349091 877.776428,225.604767 878.142273,226.651489 
	C878.465149,227.575348 879.468933,228.965302 880.148193,228.951767 
	C887.033325,228.814682 893.913574,228.431641 901.097351,227.213181 
M901.197510,51.481838 
	C901.211426,49.324966 901.071350,47.153587 901.272949,45.014404 
	C901.635376,41.168850 900.224487,39.600113 896.199463,39.858414 
	C891.407593,40.165924 886.578918,40.016796 881.770203,39.900318 
	C878.997803,39.833160 877.876709,40.967197 877.936646,43.717720 
	C878.034302,48.195133 878.042664,52.678852 877.918701,57.155197 
	C877.837402,60.091194 878.959106,61.427444 881.985352,61.312401 
	C885.464539,61.180138 888.952637,61.288376 892.436890,61.283878 
	C902.200073,61.271275 901.164795,62.177509 901.197510,51.481838 
z"/>
<path fill="#E22129" opacity="1.000000" stroke="none" 
	d="
M1.000000,67.468658 
	C30.591967,67.838799 57.387817,59.367004 81.621315,42.585835 
	C84.940773,40.287186 87.485794,40.058361 91.000618,42.466599 
	C108.673332,54.575329 127.967903,62.862919 149.329865,65.755722 
	C154.925400,66.513474 160.608276,66.947929 166.249603,66.934349 
	C170.098251,66.925087 171.712646,68.208809 171.856476,72.003273 
	C172.901428,99.570732 169.356110,126.443733 159.980209,152.472595 
	C152.338333,173.687531 140.653503,192.242462 123.790901,207.342758 
	C113.390465,216.656250 101.464546,223.585159 88.462875,228.543640 
	C86.422234,229.321869 83.437782,228.870377 81.308853,227.982529 
	C55.581295,217.253174 36.474453,199.164459 23.000223,174.923386 
	C12.845438,156.654236 6.993962,136.953903 3.445242,116.470833 
	C3.212344,115.126541 2.348403,113.891586 1.388994,112.802887 
	C1.000000,111.611107 1.000000,110.222221 1.318846,108.460159 
	C1.425128,107.391327 1.212564,106.695663 1.000001,106.000000 
	C1.000000,93.312439 1.000000,80.624878 1.000000,67.468658 
M142.737183,82.361832 
	C141.509644,82.182793 140.282089,82.003761 138.882309,81.665253 
	C138.882309,81.665253 138.654236,81.720818 138.093475,81.292755 
	C137.404678,81.237511 136.715881,81.182274 135.450455,80.896690 
	C134.837708,80.845612 134.224960,80.794533 133.014877,80.286972 
	C131.345673,79.887024 129.676483,79.487076 127.327477,78.805794 
	C114.785927,73.227821 102.275322,67.577873 89.666313,62.156788 
	C87.959595,61.423004 85.264069,61.009823 83.863075,61.847504 
	C68.222664,71.199135 51.510647,77.742340 33.049664,81.752281 
	C31.659008,82.149147 30.268353,82.546013 28.430281,82.933952 
	C28.430281,82.933952 28.006647,83.078163 27.127243,82.955460 
	C25.145573,83.138115 23.080402,83.043594 21.213165,83.606110 
	C20.070734,83.950264 18.412003,85.289948 18.397255,86.205292 
	C18.328539,90.471191 18.751886,94.745026 18.989048,99.771706 
	C19.084970,100.520866 19.180893,101.270020 19.062939,102.858360 
	C20.978003,123.409561 25.681116,143.229767 35.197372,161.657990 
	C37.977242,167.041214 41.674515,171.950684 44.981827,177.013107 
	C44.981827,177.013107 44.912434,177.028534 45.028057,177.680496 
	C45.705624,178.536926 46.383190,179.393372 47.178207,180.568161 
	C47.309097,180.766281 47.488998,180.896912 47.907742,181.656723 
	C53.960659,187.732727 59.497250,194.474838 66.220367,199.686234 
	C72.226715,204.342010 79.542809,207.308105 86.775185,211.124115 
	C87.104179,211.065445 87.433167,211.006775 88.384613,210.962799 
	C88.658638,210.676758 88.932663,210.390717 89.092651,210.116989 
	C89.092651,210.116989 89.121170,210.228104 89.850380,210.173416 
	C92.256691,208.797470 94.663010,207.421524 97.006859,206.013611 
	C97.006859,206.013611 97.029243,206.080124 97.733299,205.979980 
	C103.101311,202.094971 108.863472,198.649338 113.769119,194.248871 
	C135.005035,175.199722 145.792068,150.440292 150.867844,123.026794 
	C152.874985,112.186584 153.082428,101.013161 154.331390,89.228813 
	C154.343689,88.179893 154.355988,87.130966 154.657501,85.607307 
	C154.100677,85.088936 153.543839,84.570557 152.262527,83.881950 
	C151.271484,83.851715 150.280426,83.821472 148.679153,83.303833 
	C147.123276,83.192421 145.567398,83.081009 143.702881,82.798683 
	C143.702881,82.798683 143.350082,82.796921 142.737183,82.361832 
z"/>
<path fill="#000002" opacity="1.000000" stroke="none" 
	d="
M1.000001,106.333336 
	C1.212564,106.695663 1.425128,107.391327 1.318846,108.043495 
	C1.000000,107.555557 1.000000,107.111115 1.000001,106.333336 
z"/>
<path fill="#095ADC" opacity="1.000000" stroke="none" 
	d="
M335.807495,108.000061 
	C335.809570,146.475571 335.731567,184.451447 335.914154,222.426071 
	C335.937195,227.215683 334.668335,229.091202 329.756073,228.596451 
	C325.965149,228.214645 322.099548,228.428207 318.274750,228.575043 
	C315.264740,228.690613 314.027802,227.430786 314.130951,224.457001 
	C314.243164,221.222336 314.156433,217.980759 314.156433,213.338028 
	C311.880432,215.264908 310.705444,216.073700 309.755280,217.092239 
	C297.489075,230.241196 281.577881,231.858612 265.135284,230.504181 
	C252.055664,229.426773 240.683044,224.162766 232.838898,212.993591 
	C226.649948,204.181229 223.399734,194.209412 223.105850,183.572556 
	C222.692032,168.595016 222.190704,153.541504 223.202972,138.620621 
	C224.879807,113.903778 237.007492,95.204597 262.207794,92.345192 
	C280.692780,90.247749 298.170654,93.116905 311.461273,108.132706 
	C311.760254,108.470497 312.308594,108.587555 313.620544,109.255692 
	C313.806061,107.192200 314.081726,105.541451 314.083405,103.890427 
	C314.102173,85.235924 314.079529,66.581390 314.066803,47.926857 
	C314.061340,39.906826 314.060089,39.908985 321.823303,39.913666 
	C324.821350,39.915470 327.837769,40.112534 330.812958,39.849361 
	C334.834076,39.493671 335.924866,41.182167 335.895813,45.041065 
	C335.739105,65.859772 335.813110,86.680214 335.807495,108.000061 
M262.790070,208.938416 
	C269.471039,209.934875 276.139984,211.669571 282.835419,211.778534 
	C298.132385,212.027557 312.304413,199.487198 313.291473,184.326385 
	C314.208771,170.236526 313.972473,156.053055 313.750977,141.918533 
	C313.682434,137.545120 312.737335,132.858627 310.922668,128.897736 
	C304.192749,114.208076 287.566589,107.288437 269.902557,111.274078 
	C254.406647,114.770523 245.105392,126.412560 244.891907,142.947449 
	C244.732895,155.264221 244.729034,167.586563 244.899261,179.903076 
	C245.076416,192.721725 250.286346,202.695374 262.790070,208.938416 
z"/>
<path fill="#095ADC" opacity="1.000000" stroke="none" 
	d="
M1224.187012,226.218628 
	C1207.318481,232.876953 1190.577637,233.700714 1174.319946,226.250519 
	C1158.195923,218.861618 1150.824463,204.422470 1149.556030,187.785294 
	C1148.230469,170.399673 1147.729736,152.652039 1149.679077,135.379898 
	C1153.410034,102.321480 1176.726807,86.944664 1210.311401,93.384979 
	C1220.049561,95.252388 1228.616455,99.319565 1235.558228,106.552612 
	C1236.526489,107.561592 1237.704712,108.369011 1239.729980,110.056274 
	C1239.905640,107.164581 1240.100098,105.440559 1240.101318,103.716385 
	C1240.115601,84.551659 1240.219238,65.385582 1240.006104,46.223129 
	C1239.954956,41.612869 1241.041870,39.365318 1246.092163,39.876663 
	C1249.720947,40.244080 1253.432617,40.152737 1257.079468,39.885315 
	C1260.927002,39.603165 1262.087402,41.289745 1261.896484,44.856991 
	C1261.700806,48.513012 1261.842896,52.187271 1261.842896,55.853546 
	C1261.842407,111.348175 1261.845459,166.842804 1261.839844,222.337433 
	C1261.839111,229.176468 1261.818237,229.176483 1255.016724,229.203232 
	C1254.683472,229.204544 1254.349854,229.214874 1254.016846,229.205505 
	C1249.867065,229.088776 1244.525879,230.465424 1241.928345,228.397095 
	C1239.677979,226.605301 1240.558105,220.903427 1240.004028,216.936890 
	C1239.920166,216.337311 1239.561279,215.776154 1239.381470,215.326904 
	C1234.310303,218.991196 1229.418823,222.525696 1224.187012,226.218628 
M1199.902588,111.032799 
	C1181.490601,113.919701 1171.354370,125.027824 1170.953979,143.340347 
	C1170.670166,156.319321 1170.516602,169.325943 1171.083374,182.286148 
	C1171.300781,187.256821 1172.950317,192.503036 1175.220581,196.977615 
	C1180.457520,207.299225 1190.167969,211.232559 1201.003662,212.534851 
	C1219.325073,214.736832 1237.940552,204.014801 1239.335571,184.225632 
	C1240.409180,168.996765 1239.916260,153.619049 1239.401489,138.331726 
	C1239.114624,129.812469 1234.591187,122.992516 1227.768799,117.702713 
	C1219.723145,111.464554 1210.476440,110.515900 1199.902588,111.032799 
z"/>
<path fill="#095ADC" opacity="1.000000" stroke="none" 
	d="
M819.958008,206.999878 
	C819.955750,186.502151 820.000610,166.504227 819.938416,146.506638 
	C819.873230,125.548576 808.287109,113.141418 787.367615,112.127274 
	C781.955261,111.864906 776.333191,112.498550 771.046753,113.739830 
	C757.689026,116.876312 749.695740,127.584419 749.648621,141.917816 
	C749.559265,169.081146 749.507568,196.246063 749.745911,223.407639 
	C749.787231,228.117493 748.403503,229.700912 743.842712,229.269608 
	C738.763245,228.789261 732.024536,230.509216 729.042236,227.858124 
	C726.470154,225.571777 727.989868,218.494186 727.986755,213.534668 
	C727.951660,157.874207 727.969055,102.213692 727.981567,46.553196 
	C727.983032,39.989059 728.008545,39.981689 734.535706,39.946568 
	C737.868530,39.928631 741.218628,40.154758 744.529907,39.887333 
	C748.465088,39.569523 750.035767,41.089890 749.730225,45.007374 
	C749.510498,47.824791 749.628845,50.669933 749.626587,53.502731 
	C749.612793,70.667107 749.599121,87.831490 749.615540,104.995850 
	C749.616882,106.423302 749.841431,107.850540 750.054138,110.364426 
	C752.112488,108.578583 753.466614,107.504967 754.706543,106.312645 
	C771.875916,89.803299 802.686462,86.791245 822.224548,100.331841 
	C835.748901,109.704735 841.141174,123.984985 841.490417,139.678635 
	C842.120483,167.995178 841.654785,196.335281 841.776123,224.664993 
	C841.790894,228.117920 840.737122,229.445023 837.194824,229.299316 
	C831.589722,229.068771 825.968201,229.237915 819.958008,229.237915 
	C819.958008,221.455063 819.958008,214.477448 819.958008,206.999878 
z"/>
<path fill="#085ADC" opacity="1.000000" stroke="none" 
	d="
M1032.923096,107.075699 
	C1043.177490,117.631187 1047.253418,130.535172 1048.898804,144.317215 
	C1049.704590,151.067947 1049.339722,157.950500 1049.873535,164.744415 
	C1050.236938,169.368332 1048.619995,170.782639 1043.973022,170.752090 
	C1016.309875,170.570282 988.644958,170.670425 960.980591,170.683197 
	C954.176575,170.686340 953.881409,171.013336 954.377014,177.717438 
	C955.799622,196.959290 971.280029,210.579010 991.949585,211.066345 
	C1005.539551,211.386765 1018.097778,208.789688 1028.639160,199.559464 
	C1030.824829,197.645752 1032.724243,197.807343 1034.455322,200.269333 
	C1035.601318,201.899338 1036.933716,203.402267 1038.228027,204.923416 
	C1044.756226,212.594727 1044.804321,212.641495 1037.139526,219.045898 
	C1028.355835,226.385345 1017.809143,229.306183 1006.737854,230.528076 
	C993.173889,232.025070 979.741577,231.237488 966.927734,226.148346 
	C949.425964,219.197311 938.649170,206.071289 935.496826,187.751221 
	C932.265686,168.973785 931.877869,149.942337 936.807312,131.251648 
	C942.481873,109.735970 959.978455,95.348831 982.206665,92.783546 
	C996.639099,91.117950 1010.480591,92.057198 1023.256775,99.512321 
	C1026.659790,101.498047 1029.552612,104.358192 1032.923096,107.075699 
M1027.530762,138.215668 
	C1024.868530,126.080772 1018.120178,117.208397 1006.068970,113.556183 
	C1001.101135,112.050629 995.560364,112.001953 990.283630,112.027069 
	C970.584167,112.120872 955.634766,126.575569 954.309265,146.268875 
	C954.020569,150.559113 954.979126,152.493393 959.913574,152.421631 
	C978.886780,152.145706 997.866394,152.309418 1016.843628,152.309265 
	C1030.201050,152.309143 1030.201050,152.309204 1027.530762,138.215668 
z"/>
<path fill="#095ADD" opacity="1.000000" stroke="none" 
	d="
M676.622498,178.488007 
	C668.721313,170.920731 658.800232,171.027466 649.264038,169.919571 
	C637.718872,168.578308 626.094055,167.742371 614.636719,165.872681 
	C601.587097,163.743118 591.272217,157.287048 588.311218,143.423798 
	C584.864807,127.288040 588.197998,112.938911 602.112000,102.515717 
	C612.575073,94.677643 624.997375,92.776253 637.525330,92.114517 
	C656.885864,91.091866 675.245239,95.102333 692.261902,104.674339 
	C696.758972,107.203987 696.992126,108.300644 693.477417,112.043907 
	C690.326111,115.400162 687.613037,120.677666 683.882080,121.539902 
	C680.404297,122.343620 675.900635,118.297127 671.744263,116.648460 
	C656.168457,110.470192 640.257202,108.503273 623.862976,113.120537 
	C613.996826,115.899239 607.876770,123.448418 607.959229,132.855850 
	C608.026123,140.485352 610.730286,145.097290 618.253906,146.732346 
	C627.610229,148.765732 637.247131,149.513931 646.766663,150.788742 
	C656.640991,152.111084 666.770691,152.430191 676.344116,154.906570 
	C695.643066,159.898697 702.382202,175.281631 700.411804,193.770020 
	C698.293884,213.643814 685.259949,223.982834 667.022095,227.995819 
	C637.632141,234.462646 609.395630,232.047562 583.809753,214.383575 
	C583.127197,213.912384 582.471680,213.395325 581.848145,212.848801 
	C581.613953,212.643570 581.506714,212.293457 580.918518,211.281509 
	C584.358582,207.072357 587.851318,202.494049 591.767944,198.312683 
	C592.405029,197.632523 595.186279,198.255371 596.521545,199.045135 
	C608.273010,205.995880 620.722046,211.039597 634.366028,212.396744 
	C646.812439,213.634781 659.075195,212.403793 670.220764,206.234177 
	C680.458435,200.567169 683.206177,188.287827 676.622498,178.488007 
z"/>
<path fill="#085BE0" opacity="1.000000" stroke="none" 
	d="
M1079.491455,115.999725 
	C1079.516113,92.177567 1079.644165,68.854668 1079.473267,45.533951 
	C1079.441162,41.151073 1080.701538,39.500965 1085.132690,39.865746 
	C1089.270630,40.206371 1093.486328,39.698383 1097.602173,40.155048 
	C1098.900635,40.299110 1100.379517,42.165165 1101.051880,43.585773 
	C1101.633057,44.813938 1101.195679,46.527927 1101.195679,48.027157 
	C1101.197998,95.338348 1101.177979,142.649567 1101.246338,189.960663 
	C1101.250854,193.091476 1101.619385,196.295883 1102.356567,199.335617 
	C1103.770386,205.165390 1108.109497,208.761154 1114.133545,209.143753 
	C1118.614624,209.428345 1123.128052,209.361755 1127.621338,209.241043 
	C1130.484253,209.164124 1131.997314,209.988586 1131.883545,213.155701 
	C1131.734131,217.314453 1132.055664,221.497864 1131.743774,225.638214 
	C1131.652100,226.856537 1130.089478,228.978195 1129.219482,228.968842 
	C1119.130249,228.860275 1108.882446,230.711227 1099.051880,226.809387 
	C1087.016724,222.032455 1079.653564,210.973587 1079.564209,196.462006 
	C1079.400269,169.808777 1079.501099,143.153915 1079.491455,115.999725 
z"/>
<path fill="#095BDF" opacity="1.000000" stroke="none" 
	d="
M369.000458,223.981155 
	C369.000458,223.981155 368.819702,223.679337 368.794586,223.110199 
	C367.376434,218.885513 368.652954,216.083496 371.016174,213.132767 
	C373.728119,209.746521 375.763336,205.818268 378.092529,202.125458 
	C378.092529,202.125458 378.045593,202.066284 378.406067,201.983002 
	C380.731232,199.174225 382.695984,196.448730 384.660706,193.723236 
	C384.660706,193.723221 384.983551,193.990234 385.140991,193.730713 
	C389.088776,188.213013 392.879120,182.954819 396.669434,177.696625 
	C396.669434,177.696625 396.745209,177.766083 397.022736,177.654602 
	C398.458771,175.953156 399.617279,174.363205 400.775787,172.773254 
	C400.775787,172.773254 400.816986,172.838486 401.093567,172.704224 
	C402.785339,171.186554 404.395416,169.952011 405.584625,168.395874 
	C414.335602,156.944855 423.084442,145.490250 431.659058,133.907272 
	C435.562164,128.634781 439.068329,123.068436 442.754547,117.635376 
	C442.754547,117.635376 442.904602,117.288490 443.363831,117.073517 
	C444.470978,115.796234 445.118866,114.733917 445.766724,113.671600 
	C445.766724,113.671600 445.931061,113.322968 446.364807,113.266159 
	C446.889343,114.482208 447.497772,116.035950 446.984863,116.981285 
	C444.154663,122.197563 440.882385,127.175858 438.097931,132.414459 
	C436.124481,136.127289 434.683502,140.123138 433.004822,143.992661 
	C433.004822,143.992661 433.008148,144.002350 432.709930,144.167938 
	C427.010010,153.947357 421.608307,163.561172 416.206604,173.174988 
	C416.206604,173.175003 416.059357,173.084076 415.806976,173.234100 
	C410.226807,182.366318 404.818268,191.302338 399.633392,200.366287 
	C398.473450,202.394043 398.097839,204.870438 397.361176,207.140289 
	C399.655365,207.758804 401.947937,208.909470 404.243958,208.916321 
	C441.199982,209.026550 478.156433,208.990585 515.112793,208.990402 
	C517.110229,208.990387 519.107971,208.995697 521.105042,209.028961 
	C524.845459,209.091278 525.428223,210.938614 523.696045,213.868896 
	C522.088257,216.588776 520.152466,219.127274 518.691040,221.918396 
	C516.358521,226.373199 513.038147,228.230225 507.861084,228.211151 
	C465.578186,228.055328 423.294098,228.196167 381.011597,227.993179 
	C377.268646,227.975204 373.534393,226.156097 369.796082,225.173538 
	C369.796082,225.173538 369.863159,225.127686 369.771301,224.927216 
	C369.453094,224.478226 369.226776,224.229691 369.000458,223.981155 
z"/>
<path fill="#095BE0" opacity="1.000000" stroke="none" 
	d="
M900.946289,227.665375 
	C893.913574,228.431641 887.033325,228.814682 880.148193,228.951767 
	C879.468933,228.965302 878.465149,227.575348 878.142273,226.651489 
	C877.776428,225.604767 877.984009,224.349091 877.983948,223.184280 
	C877.981567,182.375504 878.075867,141.566284 877.870605,100.758553 
	C877.844849,95.632889 879.297913,93.906082 884.347839,94.423927 
	C888.302856,94.829506 892.343689,94.654495 896.329163,94.430351 
	C899.983765,94.224823 901.288757,95.542641 901.252136,99.294044 
	C901.091187,115.782547 901.193420,132.273529 901.180969,148.763580 
	C901.161133,174.913452 901.126038,201.063309 900.946289,227.665375 
z"/>
<path fill="#B3232A" opacity="1.000000" stroke="none" 
	d="
M449.144836,148.484268 
	C461.731873,126.168373 474.312866,103.849083 486.910309,81.539070 
	C489.856049,76.322227 492.888062,71.153931 495.810181,65.924088 
	C496.488953,64.709312 496.880493,63.334064 497.833649,60.965439 
	C453.882538,60.965439 410.905304,60.965439 367.928040,60.965439 
	C367.617462,60.479622 367.306915,59.993801 366.996338,59.507984 
	C368.871826,56.738277 371.130341,54.151138 372.553345,51.165756 
	C377.466248,40.858864 385.265411,38.309792 396.551727,38.524422 
	C437.171783,39.296894 477.817535,39.032417 518.448303,38.629681 
	C525.453186,38.560249 526.220520,43.462528 528.881958,47.337559 
	C531.257568,50.796387 528.649353,52.859077 526.881714,55.163551 
	C508.247803,79.456390 489.601807,103.739944 470.552307,128.088074 
	C470.145477,128.150085 469.841370,127.872055 469.944153,127.540421 
	C470.498596,126.323814 470.827087,125.344978 471.419708,124.567482 
	C489.067078,101.415398 506.786682,78.317993 524.328491,55.086357 
	C525.840881,53.083397 527.585327,49.600533 526.818542,47.870144 
	C525.130493,44.061012 523.383545,39.800087 517.369751,39.829765 
	C474.406769,40.041817 431.442230,39.916245 388.478455,40.019348 
	C386.275177,40.024632 383.250458,40.437271 382.022278,41.871330 
	C377.788422,46.815018 374.182251,52.296257 369.567230,58.629051 
	C373.312866,58.861065 375.560181,59.120495 377.807648,59.121571 
	C415.775726,59.139740 453.743835,59.124310 491.711914,59.123806 
	C493.376007,59.123783 495.069000,59.013939 496.697906,59.273228 
	C499.635498,59.740849 500.780731,61.157646 499.071259,64.137970 
	C485.416962,87.942894 471.760529,111.746964 458.245667,135.631042 
	C455.826752,139.905899 454.058472,144.548935 451.995178,149.011688 
	C452.000610,149.001404 452.019684,148.988022 451.679352,148.981354 
	C450.681000,149.131317 450.023010,149.287964 449.310730,149.204361 
	C449.256470,148.964096 449.144836,148.484268 449.144836,148.484268 
z"/>
<path fill="#124AA7" opacity="1.000000" stroke="none" 
	d="
M369.846985,225.535919 
	C373.534393,226.156097 377.268646,227.975204 381.011597,227.993179 
	C423.294098,228.196167 465.578186,228.055328 507.861084,228.211151 
	C513.038147,228.230225 516.358521,226.373199 518.691040,221.918396 
	C520.152466,219.127274 522.088257,216.588776 523.696045,213.868896 
	C525.428223,210.938614 524.845459,209.091278 521.105042,209.028961 
	C519.107971,208.995697 517.110229,208.990387 515.112793,208.990402 
	C478.156433,208.990585 441.199982,209.026550 404.243958,208.916321 
	C401.947937,208.909470 399.655365,207.758804 397.361176,207.140289 
	C398.097839,204.870438 398.473450,202.394043 399.633392,200.366287 
	C404.818268,191.302338 410.226807,182.366318 415.873352,173.289886 
	C410.940918,182.820084 405.681183,192.439865 400.442017,202.070801 
	C397.786072,206.953110 398.136139,207.578812 403.875031,207.582672 
	C443.199585,207.609100 482.524139,207.599045 521.848694,207.600754 
	C523.977234,207.600845 526.105774,207.600784 529.846558,207.600784 
	C526.503540,212.766449 523.412903,216.598145 521.364197,220.923325 
	C518.080322,227.856323 513.252319,229.755630 505.591766,229.677292 
	C462.772491,229.239380 419.946472,229.466888 377.122742,229.455383 
	C374.153809,229.454575 370.879425,229.978729 369.846985,225.535919 
z"/>
<path fill="#0B5BDB" opacity="1.000000" stroke="none" 
	d="
M901.193909,51.970596 
	C901.164795,62.177509 902.200073,61.271275 892.436890,61.283878 
	C888.952637,61.288376 885.464539,61.180138 881.985352,61.312401 
	C878.959106,61.427444 877.837402,60.091194 877.918701,57.155197 
	C878.042664,52.678852 878.034302,48.195133 877.936646,43.717720 
	C877.876709,40.967197 878.997803,39.833160 881.770203,39.900318 
	C886.578918,40.016796 891.407593,40.165924 896.199463,39.858414 
	C900.224487,39.600113 901.635376,41.168850 901.272949,45.014404 
	C901.071350,47.153587 901.211426,49.324966 901.193909,51.970596 
z"/>
<path fill="#B1252B" opacity="1.000000" stroke="none" 
	d="
M448.931702,148.710236 
	C449.144836,148.484268 449.256470,148.964096 449.304504,149.459106 
	C449.718536,150.375748 450.084503,150.797379 450.450439,151.219025 
	C450.973511,150.475357 451.496582,149.731689 452.019684,148.988022 
	C452.019684,148.988022 452.000610,149.001404 452.291412,148.846375 
	C453.856384,147.202972 455.153961,145.733856 456.400543,144.222717 
	C460.890106,138.780151 465.362488,133.323425 469.841370,127.872055 
	C469.841370,127.872055 470.145477,128.150085 470.295044,128.291931 
	C460.176453,141.993576 449.908295,155.553360 439.640137,169.113159 
	C439.115295,168.762741 438.590454,168.412338 438.065613,168.061935 
	C441.616608,161.686691 445.167572,155.311447 448.931702,148.710236 
z"/>
<path fill="#124AA7" opacity="1.000000" stroke="none" 
	d="
M442.450562,117.777924 
	C439.068329,123.068436 435.562164,128.634781 431.659058,133.907272 
	C423.084442,145.490250 414.335602,156.944855 405.584625,168.395874 
	C404.395416,169.952011 402.785339,171.186554 401.055237,172.699829 
	C403.870880,168.369461 406.856628,163.798813 410.158661,159.469406 
	C420.758392,145.571777 431.475067,131.763321 442.450562,117.777924 
z"/>
<path fill="#124AA7" opacity="1.000000" stroke="none" 
	d="
M433.225647,143.747101 
	C434.683502,140.123138 436.124481,136.127289 438.097931,132.414459 
	C440.882385,127.175858 444.154663,122.197563 446.984863,116.981285 
	C447.497772,116.035950 446.889343,114.482208 446.518250,113.149544 
	C447.511139,111.096481 448.784424,109.103233 450.907471,107.012665 
	C452.530121,107.025566 453.303009,107.135780 454.075867,107.245995 
	C447.199371,119.331169 440.322906,131.416351 433.225647,143.747101 
z"/>
<path fill="#124AA7" opacity="1.000000" stroke="none" 
	d="
M416.494995,173.015350 
	C421.608307,163.561172 427.010010,153.947357 432.706177,144.171661 
	C427.594910,153.625076 422.189148,163.240387 416.494995,173.015350 
z"/>
<path fill="#124AA7" opacity="1.000000" stroke="none" 
	d="
M377.795715,202.271332 
	C375.763336,205.818268 373.728119,209.746521 371.016174,213.132767 
	C368.652954,216.083496 367.376434,218.885513 368.771301,222.935837 
	C365.388428,220.413681 365.091187,217.566101 368.279938,214.067871 
	C371.608002,210.416824 374.446442,206.319443 377.795715,202.271332 
z"/>
<path fill="#124AA7" opacity="1.000000" stroke="none" 
	d="
M396.380615,177.850998 
	C392.879120,182.954819 389.088776,188.213013 384.982361,193.594101 
	C388.474792,188.479797 392.283295,183.242584 396.380615,177.850998 
z"/>
<path fill="#13418E" opacity="1.000000" stroke="none" 
	d="
M454.297607,107.057968 
	C453.303009,107.135780 452.530121,107.025566 451.177002,106.842499 
	C452.548828,104.189957 454.500916,101.610268 456.453003,99.030579 
	C456.961731,99.394562 457.470459,99.758545 457.979187,100.122528 
	C456.825897,102.371658 455.672607,104.620796 454.297607,107.057968 
z"/>
<path fill="#124AA7" opacity="1.000000" stroke="none" 
	d="
M384.352905,193.835144 
	C382.695984,196.448730 380.731232,199.174225 378.442993,201.990845 
	C380.094696,199.370331 382.069885,196.658676 384.352905,193.835144 
z"/>
<path fill="#124AA7" opacity="1.000000" stroke="none" 
	d="
M400.464294,172.881531 
	C399.617279,174.363205 398.458771,175.953156 396.971924,177.646744 
	C397.813324,176.163528 398.983063,174.576675 400.464294,172.881531 
z"/>
<path fill="#124AA7" opacity="1.000000" stroke="none" 
	d="
M445.475342,113.792862 
	C445.118866,114.733917 444.470978,115.796234 443.507874,116.951157 
	C443.856415,116.000557 444.520203,114.957336 445.475342,113.792862 
z"/>
<path fill="#124AA7" opacity="1.000000" stroke="none" 
	d="
M369.007416,224.260193 
	C369.226776,224.229691 369.453094,224.478226 369.762756,224.966934 
	C369.568848,224.984482 369.291595,224.761856 369.007416,224.260193 
z"/>
<path fill="#010B28" opacity="1.000000" stroke="none" 
	d="
M87.762161,210.948105 
	C87.433167,211.006775 87.104179,211.065445 86.365540,210.747025 
	C85.247719,209.688080 84.648315,208.804916 83.814995,208.354691 
	C71.925529,201.930771 61.491386,193.665009 52.232513,183.841888 
	C51.045067,182.582092 49.237953,181.906357 47.717911,180.960052 
	C47.488998,180.896912 47.309097,180.766281 47.113518,180.046082 
	C46.336697,178.692184 45.624565,177.860367 44.912434,177.028534 
	C44.912434,177.028534 44.981827,177.013107 44.992950,176.663513 
	C44.124008,174.393021 43.425854,172.361496 42.335335,170.568619 
	C32.913971,155.079208 26.010925,138.731232 24.877935,119.910019 
	C24.581366,114.671074 24.372280,109.880928 23.989029,105.104767 
	C23.477322,98.727722 22.830385,92.361534 22.536976,85.862183 
	C24.505930,85.217140 26.179434,84.700592 28.068859,84.459602 
	C29.511839,85.057343 30.834890,85.851700 31.950344,85.624924 
	C39.085293,84.174377 46.496773,83.323608 53.202427,80.702522 
	C62.931389,76.899681 72.197845,71.879913 81.548004,67.154488 
	C87.026085,64.385956 94.196106,66.492897 96.604507,71.997772 
	C94.005089,70.753784 91.750443,69.583038 89.416138,68.370926 
	C89.416138,113.324188 89.416138,157.607620 89.416138,202.418198 
	C99.487274,198.514267 107.781731,193.230942 114.697403,186.213577 
	C141.883194,158.628067 149.073898,124.184036 148.376846,87.212601 
	C149.136948,89.597282 149.753159,91.790802 149.940964,94.020409 
	C150.397003,99.434097 150.653870,104.864563 150.987396,110.591904 
	C150.972137,111.502739 150.960419,112.109947 150.633484,112.884964 
	C147.612564,114.950691 147.384766,117.014404 149.826630,119.608521 
	C148.478851,124.579376 147.102173,129.177628 145.953079,133.832062 
	C139.517746,159.898499 126.440697,181.756531 105.273117,198.573990 
	C102.369881,200.880600 99.769722,203.568665 97.029243,206.080124 
	C97.029243,206.080124 97.006859,206.013611 96.645599,205.994217 
	C93.896622,207.392593 91.508896,208.810349 89.121170,210.228104 
	C89.121170,210.228104 89.092651,210.116989 88.877724,210.190399 
	C88.362587,210.491898 88.062370,210.720001 87.762161,210.948105 
M84.717712,73.156303 
	C84.527016,71.760635 84.336311,70.364967 84.021889,68.063805 
	C65.628395,79.484116 46.815872,87.355995 24.318575,87.314507 
	C25.278448,98.799263 25.606522,109.760193 27.209261,120.531464 
	C31.378340,148.549850 41.913227,173.483139 64.870728,191.531250 
	C70.479927,195.940948 77.022125,199.163818 83.135361,202.932358 
	C83.666420,202.534760 84.197472,202.137161 84.728523,201.739563 
	C84.728523,159.165787 84.728523,116.591995 84.717712,73.156303 
z"/>
<path fill="#180203" opacity="1.000000" stroke="none" 
	d="
M96.949280,72.071014 
	C94.196106,66.492897 87.026085,64.385956 81.548004,67.154488 
	C72.197845,71.879913 62.931389,76.899681 53.202427,80.702522 
	C46.496773,83.323608 39.085293,84.174377 31.950344,85.624924 
	C30.834890,85.851700 29.511839,85.057343 28.114265,84.183289 
	C27.964716,83.446991 27.985682,83.262573 28.006647,83.078163 
	C28.006647,83.078163 28.430281,82.933952 29.035091,82.968216 
	C31.018356,82.591370 32.396809,82.180260 33.775261,81.769150 
	C51.510647,77.742340 68.222664,71.199135 83.863075,61.847504 
	C85.264069,61.009823 87.959595,61.423004 89.666313,62.156788 
	C102.275322,67.577873 114.785927,73.227821 127.923386,79.213165 
	C130.216934,79.994835 131.914581,80.369141 133.612213,80.743454 
	C134.224960,80.794533 134.837708,80.845612 136.044952,81.158752 
	C137.311050,81.520821 137.982651,81.620819 138.654236,81.720818 
	C138.654236,81.720818 138.882309,81.665253 138.982697,82.068665 
	C139.095322,82.687721 139.107559,82.903374 138.743622,83.282730 
	C135.591629,83.502335 132.557419,84.318741 130.085907,83.479042 
	C120.691963,80.287437 111.495758,76.517616 102.184967,73.073914 
	C100.532623,72.462784 98.686333,72.376053 96.953018,72.036148 
	C96.976448,72.025131 96.949280,72.071014 96.949280,72.071014 
z"/>
<path fill="#340203" opacity="1.000000" stroke="none" 
	d="
M97.381271,206.030060 
	C99.769722,203.568665 102.369881,200.880600 105.273117,198.573990 
	C126.440697,181.756531 139.517746,159.898499 145.953079,133.832062 
	C147.102173,129.177628 148.478851,124.579376 149.943573,119.205032 
	C150.407379,116.542305 150.678040,114.629730 150.948700,112.717148 
	C150.960419,112.109947 150.972137,111.502739 151.175476,110.202255 
	C152.281189,103.003128 153.195251,96.497292 154.109314,89.991455 
	C153.082428,101.013161 152.874985,112.186584 150.867844,123.026794 
	C145.792068,150.440292 135.005035,175.199722 113.769119,194.248871 
	C108.863472,198.649338 103.101311,202.094971 97.381271,206.030060 
z"/>
<path fill="#340203" opacity="1.000000" stroke="none" 
	d="
M24.887875,120.365044 
	C26.010925,138.731232 32.913971,155.079208 42.335335,170.568619 
	C43.425854,172.361496 44.124008,174.393021 44.977684,176.695602 
	C41.674515,171.950684 37.977242,167.041214 35.197372,161.657990 
	C25.681116,143.229767 20.978003,123.409561 19.355076,102.748627 
	C20.411953,106.550598 20.988321,110.512711 22.016176,114.354019 
	C22.580454,116.462837 23.905729,118.368034 24.887875,120.365044 
z"/>
<path fill="#340203" opacity="1.000000" stroke="none" 
	d="
M47.812828,181.308380 
	C49.237953,181.906357 51.045067,182.582092 52.232513,183.841888 
	C61.491386,193.665009 71.925529,201.930771 83.814995,208.354691 
	C84.648315,208.804916 85.247719,209.688080 86.118423,210.694855 
	C79.542809,207.308105 72.226715,204.342010 66.220367,199.686234 
	C59.497250,194.474838 53.960659,187.732727 47.812828,181.308380 
z"/>
<path fill="#040102" opacity="1.000000" stroke="none" 
	d="
M24.877935,119.910019 
	C23.905729,118.368034 22.580454,116.462837 22.016176,114.354019 
	C20.988321,110.512711 20.411953,106.550598 19.462013,102.329033 
	C19.180893,101.270020 19.084970,100.520866 19.169170,99.026405 
	C19.530510,96.166115 19.477221,93.995872 19.958769,91.951630 
	C20.442225,89.899292 21.458666,87.972496 22.241526,85.990685 
	C22.830385,92.361534 23.477322,98.727722 23.989029,105.104767 
	C24.372280,109.880928 24.581366,114.671074 24.877935,119.910019 
z"/>
<path fill="#040202" opacity="1.000000" stroke="none" 
	d="
M154.220337,89.610138 
	C153.195251,96.497292 152.281189,103.003128 151.179047,109.898621 
	C150.653870,104.864563 150.397003,99.434097 149.940964,94.020409 
	C149.753159,91.790802 149.136948,89.597282 148.344238,87.222694 
	C147.972870,87.058044 147.949265,86.994003 147.954498,86.670273 
	C147.878540,85.710739 147.797348,85.074936 148.113708,84.287514 
	C148.770660,84.021004 149.030029,83.906120 149.289383,83.791237 
	C150.280426,83.821472 151.271484,83.851715 152.720398,84.266617 
	C153.574936,85.128197 153.971603,85.605118 154.368286,86.082047 
	C154.355988,87.130966 154.343689,88.179893 154.220337,89.610138 
z"/>
<path fill="#340203" opacity="1.000000" stroke="none" 
	d="
M22.536976,85.862183 
	C21.458666,87.972496 20.442225,89.899292 19.958769,91.951630 
	C19.477221,93.995872 19.530510,96.166115 19.174267,98.648560 
	C18.751886,94.745026 18.328539,90.471191 18.397255,86.205292 
	C18.412003,85.289948 20.070734,83.950264 21.213165,83.606110 
	C23.080402,83.043594 25.145573,83.138115 27.566944,83.016815 
	C27.985682,83.262573 27.964716,83.446991 27.898342,83.907730 
	C26.179434,84.700592 24.505930,85.217140 22.536976,85.862183 
z"/>
<path fill="#340203" opacity="1.000000" stroke="none" 
	d="
M89.485779,210.200760 
	C91.508896,208.810349 93.896622,207.392593 96.676834,206.010193 
	C94.663010,207.421524 92.256691,208.797470 89.485779,210.200760 
z"/>
<path fill="#340203" opacity="1.000000" stroke="none" 
	d="
M133.313538,80.515213 
	C131.914581,80.369141 130.216934,79.994835 128.263290,79.353828 
	C129.676483,79.487076 131.345673,79.887024 133.313538,80.515213 
z"/>
<path fill="#340203" opacity="1.000000" stroke="none" 
	d="
M44.970245,177.354523 
	C45.624565,177.860367 46.336697,178.692184 47.054790,179.886902 
	C46.383190,179.393372 45.705624,178.536926 44.970245,177.354523 
z"/>
<path fill="#340203" opacity="1.000000" stroke="none" 
	d="
M33.412464,81.760712 
	C32.396809,82.180260 31.018356,82.591370 29.258801,82.972679 
	C30.268353,82.546013 31.659008,82.149147 33.412464,81.760712 
z"/>
<path fill="#340203" opacity="1.000000" stroke="none" 
	d="
M148.984268,83.547531 
	C149.030029,83.906120 148.770660,84.021004 147.756897,84.229485 
	C146.017914,84.303162 145.033310,84.283249 144.037994,83.939949 
	C144.022018,83.400902 144.016769,83.185249 144.011520,82.969597 
	C145.567398,83.081009 147.123276,83.192421 148.984268,83.547531 
z"/>
<path fill="#180203" opacity="1.000000" stroke="none" 
	d="
M143.857208,82.884140 
	C144.016769,83.185249 144.022018,83.400902 143.816132,84.002625 
	C142.962479,84.048843 142.319946,83.708984 142.097549,83.231796 
	C142.795135,82.995285 143.072601,82.896103 143.350082,82.796921 
	C143.350082,82.796921 143.702881,82.798683 143.857208,82.884140 
z"/>
<path fill="#340203" opacity="1.000000" stroke="none" 
	d="
M143.043640,82.579376 
	C143.072601,82.896103 142.795135,82.995285 141.781509,83.188339 
	C140.403503,83.227814 139.761658,83.173424 139.119812,83.119034 
	C139.107559,82.903374 139.095322,82.687721 139.068817,82.148399 
	C140.282089,82.003761 141.509644,82.182793 143.043640,82.579376 
z"/>
<path fill="#340203" opacity="1.000000" stroke="none" 
	d="
M154.512878,85.844681 
	C153.971603,85.605118 153.574936,85.128197 153.082642,84.351730 
	C153.543839,84.570557 154.100677,85.088936 154.512878,85.844681 
z"/>
<path fill="#340203" opacity="1.000000" stroke="none" 
	d="
M138.373856,81.506790 
	C137.982651,81.620819 137.311050,81.520821 136.333282,81.273926 
	C136.715881,81.182274 137.404678,81.237511 138.373856,81.506790 
z"/>
<path fill="#340203" opacity="1.000000" stroke="none" 
	d="
M88.073380,210.955444 
	C88.062370,210.720001 88.362587,210.491898 88.934738,210.184235 
	C88.932663,210.390717 88.658638,210.676758 88.073380,210.955444 
z"/>
<path fill="#000104" opacity="1.000000" stroke="none" 
	d="
M262.438171,208.791809 
	C250.286346,202.695374 245.076416,192.721725 244.899261,179.903076 
	C244.729034,167.586563 244.732895,155.264221 244.891907,142.947449 
	C245.105392,126.412560 254.406647,114.770523 269.902557,111.274078 
	C287.566589,107.288437 304.192749,114.208076 310.922668,128.897736 
	C312.737335,132.858627 313.682434,137.545120 313.750977,141.918533 
	C313.972473,156.053055 314.208771,170.236526 313.291473,184.326385 
	C312.304413,199.487198 298.132385,212.027557 282.835419,211.778534 
	C276.139984,211.669571 269.471039,209.934875 262.438171,208.791809 
z"/>
<path fill="#000104" opacity="1.000000" stroke="none" 
	d="
M1200.359863,111.024422 
	C1210.476440,110.515900 1219.723145,111.464554 1227.768799,117.702713 
	C1234.591187,122.992516 1239.114624,129.812469 1239.401489,138.331726 
	C1239.916260,153.619049 1240.409180,168.996765 1239.335571,184.225632 
	C1237.940552,204.014801 1219.325073,214.736832 1201.003662,212.534851 
	C1190.167969,211.232559 1180.457520,207.299225 1175.220581,196.977615 
	C1172.950317,192.503036 1171.300781,187.256821 1171.083374,182.286148 
	C1170.516602,169.325943 1170.670166,156.319321 1170.953979,143.340347 
	C1171.354370,125.027824 1181.490601,113.919701 1200.359863,111.024422 
z"/>
<path fill="#010106" opacity="1.000000" stroke="none" 
	d="
M1027.630859,138.619019 
	C1030.201050,152.309204 1030.201050,152.309143 1016.843628,152.309265 
	C997.866394,152.309418 978.886780,152.145706 959.913574,152.421631 
	C954.979126,152.493393 954.020569,150.559113 954.309265,146.268875 
	C955.634766,126.575569 970.584167,112.120872 990.283630,112.027069 
	C995.560364,112.001953 1001.101135,112.050629 1006.068970,113.556183 
	C1018.120178,117.208397 1024.868530,126.080772 1027.630859,138.619019 
z"/>
<path fill="#EA2028" opacity="1.000000" stroke="none" 
	d="
M469.944153,127.540421 
	C465.362488,133.323425 460.890106,138.780151 456.400543,144.222717 
	C455.153961,145.733856 453.856384,147.202972 452.286011,148.856659 
	C454.058472,144.548935 455.826752,139.905899 458.245667,135.631042 
	C471.760529,111.746964 485.416962,87.942894 499.071259,64.137970 
	C500.780731,61.157646 499.635498,59.740849 496.697906,59.273228 
	C495.069000,59.013939 493.376007,59.123783 491.711914,59.123806 
	C453.743835,59.124310 415.775726,59.139740 377.807648,59.121571 
	C375.560181,59.120495 373.312866,58.861065 369.567230,58.629051 
	C374.182251,52.296257 377.788422,46.815018 382.022278,41.871330 
	C383.250458,40.437271 386.275177,40.024632 388.478455,40.019348 
	C431.442230,39.916245 474.406769,40.041817 517.369751,39.829765 
	C523.383545,39.800087 525.130493,44.061012 526.818542,47.870144 
	C527.585327,49.600533 525.840881,53.083397 524.328491,55.086357 
	C506.786682,78.317993 489.067078,101.415398 471.419708,124.567482 
	C470.827087,125.344978 470.498596,126.323814 469.944153,127.540421 
z"/>
<path fill="#EA2028" opacity="1.000000" stroke="none" 
	d="
M451.679352,148.981354 
	C451.496582,149.731689 450.973511,150.475357 450.450439,151.219025 
	C450.084503,150.797379 449.718536,150.375748 449.358765,149.699371 
	C450.023010,149.287964 450.681000,149.131317 451.679352,148.981354 
z"/>
<path fill="#075BE1" opacity="1.000000" stroke="none" 
	d="
M148.005493,87.047958 
	C149.073898,124.184036 141.883194,158.628067 114.697403,186.213577 
	C107.781731,193.230942 99.487274,198.514267 89.416138,202.418198 
	C89.416138,157.607620 89.416138,113.324188 89.416138,68.370926 
	C91.750443,69.583038 94.005089,70.753784 96.604507,71.997772 
	C96.949280,72.071014 96.976448,72.025131 97.101776,72.343933 
	C113.001305,81.450478 129.472870,87.770073 147.949265,86.994003 
	C147.949265,86.994003 147.972870,87.058044 148.005493,87.047958 
z"/>
<path fill="#075BE1" opacity="1.000000" stroke="none" 
	d="
M84.723114,73.587257 
	C84.728523,116.591995 84.728523,159.165787 84.728523,201.739563 
	C84.197472,202.137161 83.666420,202.534760 83.135361,202.932358 
	C77.022125,199.163818 70.479927,195.940948 64.870728,191.531250 
	C41.913227,173.483139 31.378340,148.549850 27.209261,120.531464 
	C25.606522,109.760193 25.278448,98.799263 24.318575,87.314507 
	C46.815872,87.355995 65.628395,79.484116 84.021889,68.063805 
	C84.336311,70.364967 84.527016,71.760635 84.723114,73.587257 
z"/>
<path fill="#040202" opacity="1.000000" stroke="none" 
	d="
M150.633484,112.884964 
	C150.678040,114.629730 150.407379,116.542305 150.019760,118.858368 
	C147.384766,117.014404 147.612564,114.950691 150.633484,112.884964 
z"/>
<path fill="#010B28" opacity="1.000000" stroke="none" 
	d="
M147.954498,86.670273 
	C129.472870,87.770073 113.001305,81.450478 97.078354,72.354958 
	C98.686333,72.376053 100.532623,72.462784 102.184967,73.073914 
	C111.495758,76.517616 120.691963,80.287437 130.085907,83.479042 
	C132.557419,84.318741 135.591629,83.502335 138.743622,83.282730 
	C139.761658,83.173424 140.403503,83.227814 141.361389,83.325668 
	C142.319946,83.708984 142.962479,84.048843 143.826859,84.326019 
	C145.033310,84.283249 146.017914,84.303162 147.359314,84.381104 
	C147.797348,85.074936 147.878540,85.710739 147.954498,86.670273 
z"/>
</svg>